<svg id="Layer_1" data-name="Layer 1" xmlns="http://www.w3.org/2000/svg" xmlns:xlink="http://www.w3.org/1999/xlink" viewBox="0 0 214 252.3785">
  <defs>
    <style>
      .cls-1 {
        fill: #f0f2f6;
      }

      .cls-2 {
        fill: #15244a;
      }

      .cls-3 {
        fill: url(#linear-gradient);
      }

      .cls-4 {
        fill: url(#linear-gradient-2);
      }
    </style>
    <linearGradient id="linear-gradient" x1="52.5285" y1="254.6918" x2="197.2796" y2="171.5833" gradientTransform="matrix(1, 0, 0, -1, 0, 285.4)" gradientUnits="userSpaceOnUse">
      <stop offset="0" stop-color="#1c68ec"/>
      <stop offset="1" stop-color="#00e9df"/>
    </linearGradient>
    <linearGradient id="linear-gradient-2" x1="5.1768" y1="241.1605" x2="141.6752" y2="162.459" gradientTransform="matrix(1, 0, 0, -1, 0, 285.4)" gradientUnits="userSpaceOnUse">
      <stop offset="0" stop-color="#ff3c2a"/>
      <stop offset="1" stop-color="#ffd215"/>
    </linearGradient>
  </defs>
  <title>Defold-logotype</title>
  <g>
    <path class="cls-1" d="M178.2744,226.4686h2.5645v0.619h-0.8843v2.476h-0.619v-2.476h-0.8843l-0.1769-.619h0Zm4.7752,1.3264-0.7959-1.3264h-0.7074v3.0066h0.619V227.53l0.8843,1.3264h0l0.8843-1.3264v2.0339h0.619V226.557h-0.7074ZM59.2479,238.9372h0a12.1928,12.1928,0,0,1-3.8025,9.1967C52.881,250.5215,49.167,251.76,44.657,251.76h-9.02V226.4686h9.1967c8.7545,0,14.414,4.8636,14.414,12.4686h0Zm-6.367.1769c0-4.51-3.0066-7.34-7.87-7.34h-3.095v14.6793h3.095c4.8637,0,7.87-2.83,7.87-7.34h0Zm15.3868,2.6529H78.7909v-5.04H68.2678v-5.2174H80.56v-5.04H62.1662V251.76h18.57v-5.04H68.2678v-4.9521h0Zm15.8289-15.2983V251.76h6.19v-9.462h9.8157v-4.9521H90.2868v-5.66h12.1149V226.38l-18.305.0884h0Zm55.9761,0h-6.19V251.76h17.1554v-5.2173H140.0727V226.4686h0Zm38.2016,12.4686h0a12.1928,12.1928,0,0,1-3.8025,9.1967c-2.5645,2.3876-6.2785,3.6256-10.7884,3.6256h-8.9314V226.4686h9.1967c8.6661,0,14.3256,4.8636,14.3256,12.4686h0Zm-6.3669.1769c0-4.51-3.0066-7.34-7.87-7.34h-3.095v14.6793h3.095c4.8636,0,7.87-2.83,7.87-7.34h0Zm-41.8273.1769a13.0876,13.0876,0,1,1-13.0876-13.0876h0A13.0581,13.0581,0,0,1,130.08,239.2909h0Zm-6.0132,3.36v-6.8091a0.9563,0.9563,0,0,0-.619-0.9727l-5.8363-3.4488a1.3117,1.3117,0,0,0-1.15,0l-5.8363,3.4488a1.2,1.2,0,0,0-.619.9727v6.8091a0.9563,0.9563,0,0,0,.619.9727l5.9248,3.4488a1.3117,1.3117,0,0,0,1.15,0l5.8363-3.4488A0.9365,0.9365,0,0,0,124.0669,242.6512Z"/>
    <path class="cls-2" d="M142.6372,82.3281L107,102.9322,71.3628,82.3281,107,61.724Zm35.7256,20.6041V144.14L214,123.5364ZM0,123.5364L35.7256,144.14V102.9322ZM107,185.26l35.6372,20.6041L178.2744,185.26l-35.6372-20.6041h0L178.3628,144.14l-35.7256-20.6041L107,144.14,71.3628,123.5364,35.6372,144.14l35.6372,20.6041h0L35.6372,185.3488l35.6372,20.6041Z"/>
    <path class="cls-3" d="M178.2744,144.14v41.2083l-35.6372-20.6041ZM107,144.14V102.9322L71.3628,82.3281v41.2083ZM71.3628,0V41.2083L107,20.6041Zm107,61.724h0m-35.7256,61.8124L178.3628,144.14V102.9322L214,123.5364V82.3281L178.3628,61.724V20.5157h0L142.6372,0V41.2083L107,20.6041V61.8124l35.6372,20.6041v41.12h0Z"/>
    <path class="cls-4" d="M107,144.14V102.9322l35.6372-20.6041v41.2083Zm0-123.5364,35.6372,20.6041V0ZM35.7256,61.724h0M71.3628,82.3281L107,61.724V20.5157L71.3628,41.12V0L35.7256,20.6041h0V61.8124L0,82.3281v41.2083l35.6372-20.6041V144.14l35.6372-20.6041V82.3281h0.0885ZM35.7256,144.14v41.2083l35.6372-20.6041Z"/>
  </g>
</svg>
