<svg id="Layer_1" data-name="Layer 1" xmlns="http://www.w3.org/2000/svg" viewBox="0 0 142 26.0583"><defs><style>.cls-1{fill:#f0f2f6;}</style></defs><title>defold-text</title><path class="cls-1" d="M24.0053,13.6479h0A12.1383,12.1383,0,0,1,20.22,22.8035c-2.553,2.3769-6.25,3.6094-10.74,3.6094H0.5V1.235H9.6556c8.7154,0,14.35,4.8419,14.35,12.4129h0Zm-6.3385.1761c0-4.49-2.9932-7.3069-7.8351-7.3069H6.75V21.1308H9.8317c4.842,0,7.8351-2.8171,7.8351-7.3069h0Zm15.3181,2.641H43.461V11.447H32.9848V6.2529H45.2217V1.235H26.91V26.4129H45.3978v-5.018H32.9849v-4.93h0ZM48.743,1.235V26.4129h6.1624v-9.42h9.7718v-4.93H54.9054V6.429H66.9662V1.1469L48.743,1.235h0Zm55.726,0H98.3066V26.4129h17.0788v-5.194H104.469V1.235h0ZM142.5,13.6479h0a12.1383,12.1383,0,0,1-3.7855,9.1556c-2.553,2.3769-6.25,3.6094-10.74,3.6094h-8.8915V1.235h9.1556c8.6274,0,14.2616,4.8419,14.2616,12.4129h0Zm-6.3385.1761c0-4.49-2.9932-7.3069-7.8351-7.3069h-3.0812V21.1308h3.0812c4.8419,0,7.8351-2.8171,7.8351-7.3069h0ZM94.5211,14A13.0291,13.0291,0,1,1,81.4919.9709h0A13,13,0,0,1,94.5211,14h0Zm-5.9864,3.3453V10.5667a0.952,0.952,0,0,0-.6163-0.9684l-5.81-3.4334a1.3058,1.3058,0,0,0-1.1444,0l-5.81,3.4334a1.1941,1.1941,0,0,0-.6163.9684v6.7787a0.952,0.952,0,0,0,.6163.9684l5.8983,3.4333a1.3058,1.3058,0,0,0,1.1444,0l5.81-3.4333A0.9323,0.9323,0,0,0,88.5347,17.3453Z" transform="translate(-0.5 -0.9709)"/></svg>