<svg id="Layer_1" data-name="Layer 1" xmlns="http://www.w3.org/2000/svg" viewBox="0 0 1024 1024">
  <title>mask-icons</title>
  <path d="M856.3566,312.7589V119.0766L679.936,17.2617,512,114.1029,344.3566,17.2617,168.8137,119.0766V312.7589L0,409.6V614.4l167.6434,96.8411V904.9234l175.5428,101.8148L510.83,909.8972l167.6434,96.8411L854.016,904.9234v-194.56L1024,613.5223v-204.8ZM662.6743,414.5737L512.2926,502.3451,361.9109,414.5737l150.3817-87.7714ZM353.1338,429.4949l150.3817,87.7714v172.91L353.1338,602.4046v-172.91ZM494.7383,124.05L352.8411,205.97V42.13ZM26.0389,608.5485l141.8971-81.92V690.176ZM679.936,985.9657L512,889.1246,344.3566,985.9657,193.9749,898.1943l167.6434-96.8411L193.6823,705.39,344.064,617.6183l167.6434,96.8411,167.6434-96.8411L829.7325,705.39,662.0891,802.2309,829.7325,899.072ZM839.0949,884.1509l-141.8972-81.92,141.8972-82.7978V884.1509ZM856.3566,690.176V526.336l141.8971,81.92Zm150.3817-96.8411L839.0949,496.4938V690.176L688.7132,602.4046V409.6l-167.936-96.8411V138.9714l167.6434,96.8411V42.13l150.6743,87.7714V323.584l167.6435,96.8411v172.91Z"/>
</svg>
